<svg width="43" height="43" viewBox="0 0 43 43" fill="none" xmlns="http://www.w3.org/2000/svg">
<path d="M17.7627 0.259277C18.7411 1.10723 19.5891 1.88996 20.5675 2.67269C23.1766 4.75997 26.0466 6.39066 29.308 7.10816C31.1343 7.49953 32.8955 7.4343 34.7871 7.04293C34.7871 10.6304 34.7871 14.1527 34.7871 17.8055C34.1348 17.8055 33.5478 17.8055 32.765 17.8055C32.765 15.2616 32.765 12.6525 32.765 9.91294C26.8946 9.78249 21.9373 7.62998 17.7627 3.45542C13.7186 7.49952 9.02223 9.97817 3.21699 10.0434C3.15176 10.1739 3.15176 10.2391 3.15176 10.3043C3.15176 13.1743 3.08653 16.0443 3.15176 18.9143C3.28222 22.6975 4.78245 26.0241 7.26109 28.8941C9.73973 31.7641 12.4141 34.3732 15.2841 36.8519C16.5234 37.8955 17.6323 39.0696 18.8716 40.2437C18.415 40.8308 17.9584 41.4178 17.5018 42.0048C17.3061 41.8744 17.1757 41.7439 17.0452 41.6135C13.3925 38.0912 9.67451 34.6994 6.15222 31.1119C2.56471 27.5244 0.673117 23.0889 0.542662 18.0011C0.477434 14.4789 0.542662 11.0218 0.542662 7.49953C0.542662 7.30384 0.542662 7.10816 0.542662 6.91248C0.673117 6.91248 0.738344 6.91248 0.803572 6.91248C3.34744 7.89089 5.76086 7.4343 8.17427 6.58634C10.9138 5.60793 13.3272 3.97724 15.545 2.08565C16.2625 1.4986 17.0452 0.846324 17.7627 0.259277Z" fill="white"/>
<path d="M24.938 25.7632C24.8075 25.3719 24.7423 25.0457 24.6118 24.6544C24.4161 23.9369 24.6118 23.415 25.2641 23.0237C26.0468 22.5671 26.8948 22.1105 27.6775 21.7191C28.3298 21.3278 28.8516 21.393 29.4386 21.9148C29.5039 21.98 29.5691 22.0453 29.6343 22.1105C31.1346 23.4803 32.1782 23.4803 33.6784 22.1105C34.3959 21.4582 34.8525 21.393 35.7657 21.8496C36.4832 22.2409 37.2007 22.6323 37.9182 23.0237C38.5705 23.415 38.8314 23.9369 38.5705 24.7196C37.7225 26.7416 39.4184 28.6332 41.1144 28.568C41.6362 28.568 41.9623 28.8289 42.0928 29.3507C42.4841 30.9162 42.4841 32.4816 42.0928 34.0471C41.9623 34.5689 41.6362 34.8298 41.0491 34.8298C39.0271 34.9603 37.9182 36.6562 38.5053 38.5478C38.7662 39.461 38.6357 39.9176 37.7878 40.3742C37.0703 40.7655 36.2875 41.2221 35.57 41.6135C34.8525 42.0049 34.3307 41.9396 33.7437 41.3526C33.7437 41.3526 33.7437 41.3526 33.6784 41.2874C31.9825 39.6567 31.0693 39.6567 29.3082 41.2874C28.7211 41.8744 28.1993 41.9396 27.4818 41.5483C26.7643 41.1569 26.0468 40.7655 25.3293 40.3089C24.6118 39.9176 24.3509 39.3305 24.677 38.613C25.4598 36.9171 24.1552 34.7646 22.1332 34.7646C21.5461 34.7646 21.22 34.3732 21.1548 33.8514C20.8286 32.3512 20.8286 30.9162 21.1548 29.416C21.2852 28.7637 21.6766 28.5028 22.3289 28.5028C23.7639 28.4375 24.8727 27.2635 24.938 25.7632ZM40.8535 33.4601C40.8535 32.2207 40.8535 31.0466 40.8535 29.8726C37.7878 29.416 36.6137 27.5244 37.2007 24.1978C36.5484 23.8716 35.8962 23.5455 35.3091 23.0889C34.9178 22.828 34.6568 22.8932 34.2655 23.2194C32.3739 24.85 30.7432 24.85 28.8516 23.2194C28.7864 23.1541 28.7211 23.0237 28.5907 23.0237C28.4602 22.9584 28.1993 22.8932 28.0689 22.9584C27.2861 23.3498 26.5034 23.8064 25.7859 24.1978C25.7859 24.3282 25.7859 24.3282 25.7859 24.3934C26.7643 26.8721 25.0032 29.5464 22.5245 29.8073C22.3941 29.8073 22.1332 30.0682 22.1332 30.2639C22.0679 31.1771 22.0679 32.0251 22.0679 32.9382C22.0679 33.3296 22.2636 33.5253 22.655 33.5905C24.4161 33.9819 25.5902 35.0255 25.9164 36.8519C26.0468 37.5694 25.8511 38.3521 25.8511 39.2001C26.2425 39.461 26.8295 39.7219 27.3514 40.048C27.9384 40.4394 28.2646 40.3742 28.7864 39.9176C30.6127 38.3521 32.113 38.3521 33.9393 39.9176C34.135 40.1133 34.3959 40.3089 34.5916 40.5046C35.3091 40.1133 36.0266 39.7219 36.7441 39.3305C37.0703 39.2001 37.0703 39.0044 37.005 38.6783C36.8746 38.026 36.8093 37.3085 36.9398 36.6562C37.5268 34.7646 38.8966 33.7862 40.8535 33.4601Z" fill="white"/>
<path d="M25.8503 14.4788C26.633 15.1963 27.2853 15.9138 27.8724 16.566C24.2848 20.1535 20.6973 23.7411 17.1098 27.3286C14.8921 25.1108 12.6091 22.8279 10.3262 20.6101C10.9784 19.9579 11.6959 19.2404 12.4135 18.5881C13.9137 20.0883 15.4791 21.719 17.1098 23.2845C20.0451 20.284 22.9803 17.414 25.8503 14.4788Z" fill="white"/>
<path d="M35.2445 31.6988C35.2445 33.7208 33.6138 35.4168 31.5266 35.4168C29.5045 35.4168 27.8086 33.7208 27.8086 31.6988C27.8086 29.6767 29.5045 27.9808 31.5266 27.9808C33.5486 27.9156 35.2445 29.6115 35.2445 31.6988ZM33.94 31.6988C33.94 30.329 32.8311 29.2201 31.5266 29.2201C30.222 29.2201 29.1131 30.2638 29.1131 31.5683C29.0479 32.9381 30.1568 34.1122 31.5266 34.1122C32.8311 34.1122 33.94 33.0686 33.94 31.6988Z" fill="white"/>
</svg>
