<svg width="46" height="46" viewBox="0 0 46 46" fill="none" xmlns="http://www.w3.org/2000/svg">
<path d="M33.5 39.3333C35.0471 39.3333 36.5308 38.7188 37.6248 37.6248C38.7188 36.5308 39.3333 35.0471 39.3333 33.5C39.3333 31.9529 38.7188 30.4692 37.6248 29.3752C36.5308 28.2812 35.0471 27.6667 33.5 27.6667C31.9529 27.6667 30.4692 28.2812 29.3752 29.3752C28.2812 30.4692 27.6667 31.9529 27.6667 33.5C27.6667 35.0471 28.2812 36.5308 29.3752 37.6248C30.4692 38.7188 31.9529 39.3333 33.5 39.3333ZM18.3333 6.66667L23 2L18.3333 6.66667ZM12.5 18.3333C14.0471 18.3333 15.5308 17.7188 16.6248 16.6248C17.7188 15.5308 18.3333 14.0471 18.3333 12.5C18.3333 10.9529 17.7188 9.46917 16.6248 8.37521C15.5308 7.28125 14.0471 6.66667 12.5 6.66667C10.9529 6.66667 9.46917 7.28125 8.37521 8.37521C7.28125 9.46917 6.66667 10.9529 6.66667 12.5C6.66667 14.0471 7.28125 15.5308 8.37521 16.6248C9.46917 17.7188 10.9529 18.3333 12.5 18.3333ZM13.6667 32.3333L32.3333 13.6667L13.6667 32.3333ZM7.83333 44C9.38043 44 10.8642 43.3854 11.9581 42.2915C13.0521 41.1975 13.6667 39.7138 13.6667 38.1667C13.6667 36.6196 13.0521 35.1358 11.9581 34.0419C10.8642 32.9479 9.38043 32.3333 7.83333 32.3333C6.28624 32.3333 4.80251 32.9479 3.70854 34.0419C2.61458 35.1358 2 36.6196 2 38.1667C2 39.7138 2.61458 41.1975 3.70854 42.2915C4.80251 43.3854 6.28624 44 7.83333 44ZM38.1667 13.6667C39.7138 13.6667 41.1975 13.0521 42.2915 11.9581C43.3854 10.8642 44 9.38043 44 7.83333C44 6.28624 43.3854 4.80251 42.2915 3.70854C41.1975 2.61458 39.7138 2 38.1667 2C36.6196 2 35.1358 2.61458 34.0419 3.70854C32.9479 4.80251 32.3333 6.28624 32.3333 7.83333C32.3333 9.38043 32.9479 10.8642 34.0419 11.9581C35.1358 13.0521 36.6196 13.6667 38.1667 13.6667ZM23 44L27.6667 39.3333L23 44Z" fill="#282828"/>
<path d="M23 44L27.6667 39.3333M33.5 39.3333C35.0471 39.3333 36.5308 38.7188 37.6248 37.6248C38.7188 36.5308 39.3333 35.0471 39.3333 33.5C39.3333 31.9529 38.7188 30.4692 37.6248 29.3752C36.5308 28.2812 35.0471 27.6667 33.5 27.6667C31.9529 27.6667 30.4692 28.2812 29.3752 29.3752C28.2812 30.4692 27.6667 31.9529 27.6667 33.5C27.6667 35.0471 28.2812 36.5308 29.3752 37.6248C30.4692 38.7188 31.9529 39.3333 33.5 39.3333V39.3333ZM18.3333 6.66667L23 2L18.3333 6.66667ZM12.5 18.3333C14.0471 18.3333 15.5308 17.7188 16.6248 16.6248C17.7188 15.5308 18.3333 14.0471 18.3333 12.5C18.3333 10.9529 17.7188 9.46917 16.6248 8.37521C15.5308 7.28125 14.0471 6.66667 12.5 6.66667C10.9529 6.66667 9.46917 7.28125 8.37521 8.37521C7.28125 9.46917 6.66667 10.9529 6.66667 12.5C6.66667 14.0471 7.28125 15.5308 8.37521 16.6248C9.46917 17.7188 10.9529 18.3333 12.5 18.3333V18.3333ZM13.6667 32.3333L32.3333 13.6667L13.6667 32.3333ZM7.83333 44C9.38043 44 10.8642 43.3854 11.9581 42.2915C13.0521 41.1975 13.6667 39.7138 13.6667 38.1667C13.6667 36.6196 13.0521 35.1358 11.9581 34.0419C10.8642 32.9479 9.38043 32.3333 7.83333 32.3333C6.28624 32.3333 4.80251 32.9479 3.70854 34.0419C2.61458 35.1358 2 36.6196 2 38.1667C2 39.7138 2.61458 41.1975 3.70854 42.2915C4.80251 43.3854 6.28624 44 7.83333 44V44ZM38.1667 13.6667C39.7138 13.6667 41.1975 13.0521 42.2915 11.9581C43.3854 10.8642 44 9.38043 44 7.83333C44 6.28624 43.3854 4.80251 42.2915 3.70854C41.1975 2.61458 39.7138 2 38.1667 2C36.6196 2 35.1358 2.61458 34.0419 3.70854C32.9479 4.80251 32.3333 6.28624 32.3333 7.83333C32.3333 9.38043 32.9479 10.8642 34.0419 11.9581C35.1358 13.0521 36.6196 13.6667 38.1667 13.6667Z" stroke="white" stroke-width="3" stroke-linecap="round" stroke-linejoin="round"/>
</svg>
