<svg width="43" height="43" viewBox="0 0 43 43" fill="none" xmlns="http://www.w3.org/2000/svg">
<path d="M0.566406 42.6385C0.566406 41.8327 0.566406 41.0057 0.566406 40.1787C1.39339 40.1787 2.17797 40.1787 3.02617 40.1787C3.02617 35.9801 3.02617 31.8028 3.02617 27.6042C5.57074 27.6042 8.05171 27.6042 10.5751 27.6042C10.5751 31.7816 10.5751 35.9377 10.5751 40.1363C11.4021 40.1363 12.2079 40.1363 13.056 40.1363C13.056 33.478 13.056 26.8197 13.056 20.1402C15.5582 20.1402 17.9968 20.1402 20.4989 20.1402C20.4989 26.7985 20.4989 33.4568 20.4989 40.1363C21.3471 40.1363 22.1529 40.1363 22.9799 40.1363C22.9799 35.132 22.9799 30.1488 22.9799 25.1233C25.4821 25.1233 27.9418 25.1233 30.444 25.1233C30.444 30.1276 30.444 35.132 30.444 40.1363C31.2922 40.1363 32.0768 40.1363 32.925 40.1363C32.925 31.824 32.925 23.5117 32.925 15.1782C35.4695 15.1782 37.9505 15.1782 40.4739 15.1782C40.4739 23.4905 40.4739 31.8028 40.4739 40.1575C41.3221 40.1575 42.1491 40.1575 42.976 40.1575C42.976 40.9845 42.976 41.8115 42.976 42.6385C28.8324 42.6385 14.71 42.6385 0.566406 42.6385Z" fill="white"/>
<path d="M42.9766 10.1738C42.1708 10.1738 41.3438 10.1738 40.4957 10.1738C40.4957 8.28659 40.4957 6.44177 40.4957 4.46972C35.873 9.07117 31.314 13.5878 26.7761 18.1044C23.4682 14.7965 20.1814 11.5097 16.8311 8.15936C12.0812 12.8668 7.39493 17.5319 2.70866 22.197C2.11493 21.6032 1.5424 21.0519 1.05469 20.543C6.24987 15.263 11.4663 9.96177 16.7038 4.66057C20.0754 8.03213 23.3834 11.3401 26.7337 14.6904C30.699 10.6403 34.6007 6.65382 38.4388 2.73093C36.7424 2.73093 34.8552 2.73093 32.9679 2.73093C32.9679 1.88274 32.9679 1.09816 32.9679 0.22876C36.2971 0.22876 39.6263 0.22876 42.9766 0.22876C42.9766 3.53671 42.9766 6.86587 42.9766 10.1738Z" fill="white"/>
</svg>
