<svg width="36" height="43" viewBox="0 0 36 43" fill="none" xmlns="http://www.w3.org/2000/svg">
<path d="M19.0145 0.0451306C19.8203 0.17236 20.6261 0.257179 21.4107 0.448022C26.9239 1.76272 30.656 5.11308 32.734 10.3507C32.8401 10.6263 32.9673 10.8808 33.1157 11.114C33.5186 11.7714 33.7307 12.4924 33.7307 13.2769C33.7307 14.9733 33.7307 16.6697 33.7307 18.3661C33.7307 20.6562 32.2039 22.3102 29.9138 22.4374C28.9384 22.501 27.963 22.4374 26.9027 22.4374C28.3446 20.4442 29.002 18.2601 29.002 15.8851C29.002 13.5102 28.3658 11.3261 26.9027 9.31164C27.7721 9.31164 28.5779 9.31164 29.4261 9.31164C27.7297 5.83405 23.6584 2.80176 18.6752 2.52609C12.5683 2.18682 8.09404 5.68561 6.24922 9.29043C7.0762 9.29043 7.9032 9.29043 8.70898 9.29043C5.97356 13.6798 5.97356 18.0268 8.70898 22.4374C8.56055 22.4374 8.41211 22.4374 8.26367 22.4374C7.37307 22.4374 6.50367 22.4586 5.61307 22.395C3.61982 22.2466 2.09307 20.8471 2.00825 18.8538C1.90223 16.7969 1.98705 14.7401 2.00825 12.7044C2.00825 12.3651 2.13549 12.0046 2.28393 11.6654C2.77164 10.5839 3.23813 9.50248 3.81066 8.46344C6.35524 3.71356 10.3418 0.978143 15.6642 0.17236C16.0034 0.12995 16.3427 0.0663354 16.682 0.0239258C17.4666 0.0451306 18.2299 0.0451306 19.0145 0.0451306Z" fill="white"/>
<path fill-rule="evenodd" clip-rule="evenodd" d="M20.7377 26.8056C19.71 26.6714 18.4427 26.5586 17.2286 26.5581C17.0479 26.5869 16.874 26.5964 16.7493 26.5993C16.272 26.6787 15.8578 26.735 15.4802 26.7863L15.4801 26.7863C14.736 26.8875 14.1341 26.9693 13.4714 27.17C7.75969 28.9363 4.16803 32.695 2.44192 38.4403C2.28407 38.9863 2.26625 39.2767 2.30865 39.4865C2.43151 40.0226 2.81285 40.3911 3.5771 40.3911H3.62345H3.66979H3.71614H3.76248H3.80883H3.85517H3.90152H3.94787H3.99422H4.04057H4.08692H4.13326H4.17961H4.22597H4.27232H4.31867H4.36502H4.41137H4.45772H4.50408H4.55043H4.59679H4.64314H4.6895H4.73585H4.78221H4.82856H4.87492H4.92128H4.96763H5.01399H5.06035H5.10671H5.15307H5.19943H5.24579H5.29215H5.33851H5.38487H5.43123H5.4776H5.52396H5.57032H5.61668H5.66305H5.70941H5.75578H5.80214H5.84851H5.89487H5.94124H5.98761H6.03397H6.08034H6.12671H6.17308H6.21945H6.26581H6.31218H6.35855H6.40492H6.45129H6.49766H6.54404H6.59041H6.63678H6.68315H6.72952H6.7759H6.82227H6.86864H6.91502H6.96139H7.00777H7.05414H7.10052H7.14689H7.19327H7.23965H7.28602H7.3324H7.37878H7.42515H7.47153H7.51791H7.56429H7.61067H7.65705H7.70343H7.74981H7.79619H7.84257H7.88895H7.93533H7.98171H8.02809H8.07448H8.12086H8.16724H8.21362H8.26001H8.30639H8.35277H8.39916H8.44554H8.49193H8.53831H8.5847H8.63108H8.67747H8.72386H8.77024H8.81663H8.86302H8.9094H8.95579H9.00218H9.04857H9.09496H9.14134H9.18773H9.23412H9.28051H9.3269H9.37329H9.41968H9.46607H9.51246H9.55885H9.60524H9.65164H9.69803H9.74442H9.79081H9.8372H9.8836H9.92999H9.97638H10.0228H10.0692H10.1156H10.162H10.2083H10.2547H10.3011H10.3475H10.3939H10.4403H10.4867H10.5331H10.5795H10.6259H10.6723H10.7187H10.7651H10.8115H10.8579H10.9043H10.9507H10.9971H11.0435H11.0899H11.1363H11.1827H11.2291H11.2755H11.3219H11.3683H11.4147H11.4611H11.5075H11.5539H11.6003H11.6467H11.6931H11.7395H11.7859H11.8323H11.8787H11.9251H11.9715H12.0179H12.0643H12.1107H12.1571H12.2035H12.2499H12.2963H12.3427H12.3891H12.4355H12.4819H12.5283H12.5747H12.6211H12.6675H12.7139H12.7603H12.8067H12.8531H12.8995H12.9459H12.9923H13.0387H13.0851H13.1315H13.1779H13.2243H13.2707H13.3171H13.3635H13.41H13.4564H13.5028H13.5492H13.5956H13.642H13.6884H13.7348H13.7812H13.8276H13.874H13.9204H13.9668H14.0132H14.0596H14.106H14.1524H14.1988H14.2452H14.2916H14.3381H14.3845H14.4309H14.4773H14.5237H14.5701H14.6165H14.6629H14.7093H14.7557H14.8021H14.8485H14.8949H14.9413H14.9877H15.0341H15.0805H15.127H15.1734H15.2198H15.2662H15.3126H15.359H15.4054H15.4518H15.4982H15.5446H15.591H15.6374H15.6838H15.7302H15.7766H15.823H15.8695H15.9159H15.9623H16.0087H16.0551H16.1015H16.1479H16.1943H16.2407H16.2871H16.3335H16.3799H16.4263H16.4727H16.5191H16.5655H16.6119H16.6584H16.7048H16.7512H16.7976H16.844H16.8904H16.9368H16.9832H17.0296H17.076H17.1224H17.1688H17.2152H17.2616H17.308H17.3544H17.4008H17.4472H17.4936H17.5401H17.5865H17.6329H17.6793H17.7257H17.7721H17.8185H17.8649H17.9113H17.9577H18.0041H18.0505H18.0969H18.1433H18.1897H18.2361H18.2825H18.3289H18.3753H18.4217H18.4681H18.5145H18.5609H18.6073H18.6537H18.7001H18.7465H18.7929H18.8393H18.8857H18.9321H18.9785H19.0249H19.0713H19.1177H19.1641H19.2105H19.2569H19.3033H19.3497H19.3961H19.4425H19.4889H19.5353H19.5817H19.6281H19.6745H19.7209H19.7673H19.8137H19.8601H19.9065H19.9529H19.9993H20.0457H20.0921H20.1385H20.1849H20.2313H20.2777H20.3241H20.3705H20.4169H20.4633H20.5097H20.5561H20.6025H20.6489H20.6952H20.7416H20.788H20.8344H20.8808H20.9272H20.9736H21.02H21.0664H21.1128H21.1592H21.2056H21.252H21.2984H21.3447H21.3911H21.4375H21.4839H21.5303H21.5767H21.6231H21.6695H21.7159H21.7623H21.8086H21.855H21.9014H21.9478H21.9942H22.0406H22.087H22.1334H22.1797H22.2261H22.2725H22.3189H22.3653H22.4117H22.4581H22.5044H22.5508H22.5972H22.6436H22.69H22.7364H22.7827H22.8291H22.8755H22.9219H22.9683H23.0147H23.061H23.1074H23.1538H23.2002H23.2466H23.2929H23.3393H23.3857H23.4321H23.4784H23.5248H23.5712H23.6176H23.664H23.7103H23.7567H23.8031H23.8495H23.8958H23.9422H23.9886H24.035H24.0813H24.1277H24.1741H24.2204H24.2668H24.3132H24.3596H24.4059H24.4523H24.4987H24.545H24.5914H24.6378H24.6842H24.7305H24.7769H24.8233H24.8696H24.916H24.9624H25.0087H25.0551H25.1015H25.1478H25.1942H25.2405H25.2869H25.3333H25.3796H25.426H25.4724H25.5187H25.5651H25.6114H25.6578H25.7042H25.7505H25.7969H25.8432H25.8896H25.936H25.9823H26.0287H26.075H26.1214H26.1677H26.2141H26.2605H26.3068H26.3532H26.3995H26.4459H26.4922H26.5386H26.5849H26.6313H26.6776H26.724H26.7703H26.8167H26.863H26.9094H26.9557H27.0021H27.0484H27.0948H27.1411H27.1875H27.2338H27.2802H27.3265C27.7536 40.3911 28.1753 40.3925 28.5931 40.3938L28.5959 40.3938C29.8286 40.3977 31.0281 40.4016 32.2372 40.3706L32.2484 40.3703L32.2484 40.3703C33.0786 40.3537 33.5619 39.7556 33.3703 38.9106L33.3683 38.9021C32.8829 36.7176 31.9304 34.7113 30.548 32.8933L30.5466 32.8915C28.0364 29.5826 24.8068 27.521 20.7377 26.8056ZM17.5553 22.6773L18 22.8221V22V21.9153C17.9505 21.854 17.9031 21.7906 17.8579 21.725C17.3279 20.9562 17.1888 20.0255 17.3754 19.1616C17.5276 18.4236 17.9223 17.7111 18.6279 17.2188C19.2929 16.7549 20.0394 16.6225 20.675 16.6205C21.9593 16.6043 23.2315 16.6005 24.5101 16.609C24.5182 16.5559 24.5237 16.5098 24.5271 16.4678L24.5274 16.4635C24.9087 11.822 20.3449 7.7068 15.2916 9.68912L15.2843 9.69199L15.2843 9.69198C12.9253 10.6067 11.2076 13.061 11.175 15.6122C11.1575 17.1585 11.4918 18.3849 12.089 19.3592C12.6845 20.3307 13.6177 21.1762 15.0004 21.842C15.4683 22.0644 15.8874 22.1839 16.433 22.3395L16.433 22.3395C16.7521 22.4305 17.1146 22.5338 17.5553 22.6773ZM23.2599 25.3539C26.8524 26.4472 29.8 28.5981 32.14 31.6827C33.6879 33.7183 34.7694 35.9873 35.3207 38.4682C35.7872 40.5251 34.4089 42.3275 32.2884 42.3699C31.0481 42.4017 29.8077 42.3977 28.5673 42.3938H28.5669C28.1534 42.3924 27.74 42.3911 27.3265 42.3911H3.5771C1.94433 42.3911 0.693243 41.4369 0.353966 39.9101C0.205532 39.2104 0.332758 38.5318 0.523602 37.8745C2.43204 31.513 6.50337 27.2297 12.886 25.2576L12.8879 25.2571C13.0676 25.2025 13.2493 25.1543 13.4324 25.1111L13.4404 25.1092C14.0813 24.9582 14.7405 24.8672 15.399 24.7762L15.3991 24.7762L15.3991 24.7762L15.3992 24.7761L15.3992 24.7761C15.7929 24.7217 16.1864 24.6674 16.5757 24.6003C16.7029 24.6003 16.8301 24.6003 16.9361 24.5791C16.8173 24.5404 16.697 24.5031 16.5757 24.4666L16.5514 24.4593C16.3918 24.4115 16.2305 24.365 16.0684 24.3183L16.0681 24.3182L16.0679 24.3181L16.0678 24.3181C15.4156 24.13 14.7511 23.9384 14.1371 23.6461C13.7977 23.4828 13.4757 23.308 13.1711 23.1218C10.469 21.4703 9.13706 18.9231 9.17518 15.5882C9.21759 12.2167 11.4441 9.03593 14.5612 7.82726C21.1559 5.24027 27.0084 10.6899 26.5207 16.6273C26.4953 16.9453 26.424 17.2634 26.3528 17.5815C26.3053 17.7935 26.2578 18.0056 26.2238 18.2176C26.1814 18.5357 26.0118 18.6205 25.6937 18.6205C24.0185 18.5993 22.3646 18.5993 20.6894 18.6205C19.926 18.6205 19.4595 18.9386 19.3323 19.5747C19.1626 20.3381 19.6079 21.0167 20.3925 21.0803C20.8779 21.1258 21.3742 21.117 21.8658 21.1084H21.8658L22.0413 21.1054C22.1779 21.1032 22.3141 21.1015 22.4494 21.1015H24.7819C24.1661 21.9226 23.4812 22.5782 22.705 23.1015L22.6726 23.1232C22.4969 23.2405 22.3166 23.351 22.1313 23.4552C21.8469 23.6152 21.5542 23.757 21.2551 23.8819L21.2364 23.8897L21.2326 23.8913C20.4679 24.2082 19.6617 24.4156 18.8446 24.5367C19.1414 24.5791 19.4383 24.6147 19.7352 24.6503C20.1805 24.7037 20.6258 24.7572 21.0711 24.8335C21.7262 24.9482 22.3625 25.0944 22.98 25.2712C23.0737 25.2981 23.167 25.3256 23.2599 25.3539Z" fill="white"/>
</svg>
