<svg width="42" height="39" viewBox="0 0 42 39" fill="none" xmlns="http://www.w3.org/2000/svg">
<path d="M41.9219 26.1738C41.1161 26.1738 40.2892 26.1738 39.441 26.1738C39.441 24.2866 39.441 22.4418 39.441 20.4697C34.8183 25.0712 30.2593 29.5878 25.7214 34.1044C22.4135 30.7965 19.1267 27.5097 15.7764 24.1594C11.0265 28.8668 6.34024 33.5319 1.65398 38.197C1.06024 37.6032 0.487711 37.0519 0 36.543C5.19518 31.263 10.4116 25.9618 15.6492 20.6606C19.0207 24.0321 22.3287 27.3401 25.679 30.6904C29.6443 26.6403 33.546 22.6538 37.3841 18.7309C35.6877 18.7309 33.8005 18.7309 31.9133 18.7309C31.9133 17.8827 31.9133 17.0982 31.9133 16.2288C35.2424 16.2288 38.5716 16.2288 41.9219 16.2288C41.9219 19.5367 41.9219 22.8659 41.9219 26.1738Z" fill="#4385F5"/>
<path d="M21.1613 22.64H25.1933V20.312H25.1693C28.1453 19.808 30.5933 18.152 30.5933 15.008C30.5933 11.144 27.1133 9.8 23.7773 9.44C22.1213 9.272 20.9933 9.104 20.9933 7.952C20.9933 7.064 22.1213 6.704 23.2733 6.704C24.7373 6.704 26.0573 6.992 27.2093 7.856L29.5613 4.856C28.2413 3.824 26.8253 3.248 25.1933 3.008V0.871999H21.1613V3.056C18.4493 3.56 16.2413 5.12 16.2413 7.952C16.2413 12.128 19.4093 13.064 23.0813 13.4C24.9293 13.568 25.8893 14.096 25.8893 14.936C25.8893 15.872 24.8093 16.424 23.2493 16.424C21.8333 16.424 19.9853 16.136 18.3293 14.528L15.7133 17.528C17.4653 19.4 19.1453 20.144 21.1613 20.384V22.64Z" fill="#4385F5"/>
</svg>
