<svg width="41" height="43" viewBox="0 0 41 43" fill="none" xmlns="http://www.w3.org/2000/svg">
<path d="M24.8732 37.0195V38.2699C24.8732 39.2523 24.1586 40.0561 23.2209 40.1901L22.9083 41.3065C22.7297 41.887 22.1939 42.3336 21.5686 42.3336H18.5767C17.9515 42.3336 17.371 41.887 17.237 41.3065L16.9245 40.1901C15.9867 40.0561 15.2722 39.2523 15.2722 38.2699V37.0195C15.2722 36.3944 15.7634 35.8138 16.4779 35.8138H23.7121C24.382 35.8585 24.8732 36.3944 24.8732 37.0195ZM18.9787 1.16103V5.26933C18.9787 5.8945 19.4698 6.43036 20.1398 6.43036C20.7649 6.43036 21.3008 5.93912 21.3008 5.26933V1.16103C21.3008 0.535858 20.8096 0 20.1398 0C19.5145 0 18.9787 0.535858 18.9787 1.16103ZM6.38574 20.1843C6.38574 19.5591 5.89457 19.0233 5.22471 19.0233H1.16103C0.535859 19.0233 0 19.5145 0 20.1843C0 20.8095 0.491237 21.3454 1.16103 21.3454H5.26933C5.84988 21.3007 6.38574 20.8095 6.38574 20.1843ZM39.1183 19.0234H35.01C34.3847 19.0234 33.8489 19.5145 33.8489 20.1844C33.8489 20.8096 34.3402 21.3455 35.01 21.3455H39.1183C39.7435 21.3455 40.2794 20.8542 40.2794 20.1844C40.3241 19.5145 39.8328 19.0234 39.1183 19.0234ZM8.75248 29.8746L5.84988 32.7772C5.35865 33.2684 5.35865 33.9829 5.84988 34.4295C6.07319 34.6527 6.34112 34.7868 6.65367 34.7868C6.96628 34.7868 7.23421 34.6528 7.45752 34.4295L10.3601 31.5269C10.8514 31.0357 10.8514 30.3212 10.3601 29.8746C9.95819 29.428 9.24371 29.428 8.75248 29.8746ZM32.7772 5.89457L29.8746 8.79716C29.3833 9.28833 29.3833 10.0029 29.8746 10.4494C30.1426 10.6727 30.4105 10.8067 30.7231 10.8067C31.0357 10.8067 31.3037 10.6727 31.5269 10.4494L34.4294 7.54683C34.9206 7.05559 34.9206 6.34112 34.4294 5.89457C33.9383 5.44802 33.2239 5.40333 32.7772 5.89457ZM7.45752 5.89457C6.96628 5.40333 6.25181 5.40333 5.80526 5.89457C5.35871 6.38581 5.31402 7.10028 5.80526 7.54683L8.75254 10.4494C8.97578 10.6727 9.24371 10.8067 9.55633 10.8067C9.86895 10.8067 10.1369 10.6727 10.3601 10.4494C10.8514 9.95819 10.8514 9.24371 10.3601 8.79716L7.45752 5.89457ZM31.5269 29.8746C31.0356 29.3835 30.3211 29.3835 29.8746 29.8746C29.3833 30.3659 29.3833 31.0804 29.8746 31.5269L32.7772 34.4295C33.0004 34.6527 33.2683 34.7868 33.581 34.7868C33.8936 34.7868 34.1615 34.6528 34.3847 34.4295C34.876 33.9383 34.876 33.2238 34.3847 32.7772L31.5269 29.8746ZM30.9464 20.2737C30.9464 23.0424 29.83 25.811 27.9098 27.7758C26.7934 28.9369 26.0788 30.3658 25.8556 31.9288C25.6323 33.2685 24.4712 34.2955 23.0869 34.2955H17.1031C15.7188 34.2955 14.5577 33.3131 14.3344 31.9288C14.1111 30.3659 13.352 28.8922 12.2802 27.7758C10.3601 25.7663 9.28834 23.1763 9.24365 20.4076C9.19903 14.4237 14.0218 9.51164 19.9611 9.46695H20.0504C26.0343 9.51164 30.9464 14.3344 30.9464 20.2737ZM28.535 20.2737C28.535 15.6295 24.7392 11.8338 20.0504 11.8338H20.0057C15.3615 11.9231 11.6105 15.7188 11.6551 20.4076C11.6998 22.5511 12.5482 24.5606 14.0219 26.1682C15.4509 27.6418 16.3886 29.562 16.7012 31.6161C16.7459 31.8395 16.9245 31.9734 17.1032 31.9734H18.9787H21.2114H23.0869C23.3101 31.9734 23.4889 31.7948 23.4889 31.6161C23.8015 29.562 24.7392 27.6865 26.2129 26.1682C27.6865 24.6052 28.535 22.4618 28.535 20.2737ZM26.5701 20.3183C26.5701 23.8908 23.6675 26.7934 20.095 26.7934C16.5225 26.7934 13.62 23.8908 13.62 20.3183C13.62 16.7459 16.5225 13.8433 20.095 13.8433C23.6675 13.8433 26.5701 16.7459 26.5701 20.3183ZM23.3995 18.8894L22.1493 17.639L19.2466 20.4969L18.0409 19.2912L16.7905 20.5415L17.9963 21.7473L19.2466 22.9976L20.497 21.7473L23.3995 18.8894Z" fill="#4385F5"/>
</svg>
