<svg width="43" height="33" viewBox="0 0 43 33" fill="none" xmlns="http://www.w3.org/2000/svg">
<path d="M13.1585 20.5887C10.268 20.8044 7.42067 18.561 6.55783 15.3254C5.82442 12.6937 6.85982 9.84635 9.27577 8.20696C11.2172 6.9127 13.3743 6.13614 15.4451 5.14388C18.9827 3.46134 22.5204 1.82195 26.058 0.139412C26.5757 -0.11944 26.8777 -0.0331562 27.0934 0.527689C27.3954 1.34739 27.8268 2.12394 28.1719 2.9005C28.5602 3.76334 28.5171 3.84962 27.6542 4.28104C22.7792 6.56756 17.9042 8.85408 13.0291 11.1406C12.8997 11.2269 12.7271 11.27 12.5977 11.3563C11.0877 12.1329 10.6132 13.4703 11.2603 15.0234C11.9506 16.6196 13.2448 17.2236 14.8842 16.6196C15.4451 16.4039 15.9628 16.1451 16.4805 15.8862C16.955 15.6705 17.257 15.7137 17.4727 16.2314C17.7747 16.9216 18.1199 17.6119 18.465 18.3022C18.6376 18.6473 18.6807 18.9062 18.2493 19.0787C16.6099 19.8121 15.0137 20.7613 13.1585 20.5887Z" fill="#4385F5"/>
<path d="M3.27972 15.3252C5.13482 15.3252 6.51536 16.7057 6.51536 18.5177C6.51536 20.3297 5.04854 21.7102 3.23657 21.7102C1.42461 21.7102 -0.0422141 20.2434 0.000927895 18.4746C0.0440698 16.6626 1.42461 15.3252 3.27972 15.3252Z" fill="#4385F5"/>
<path d="M29.0356 10.8385C31.9261 10.5365 34.7735 12.7799 35.7226 15.9724C36.4992 18.604 35.5501 21.4514 33.1341 23.1771C31.2359 24.5145 29.0788 25.3342 27.0079 26.3696C23.5134 28.1384 18.9835 30.3818 15.489 32.1506C14.9713 32.4095 14.6693 32.3663 14.4536 31.8055C14.1085 30.9858 13.7202 30.2092 13.3319 29.4327C12.9005 28.5698 12.9868 28.4836 13.8065 28.0521C18.6384 25.6793 24.5057 22.7457 29.3376 20.3729C29.467 20.2866 29.6396 20.2434 29.769 20.1572C31.279 19.3375 31.7104 18.0001 31.0201 16.4901C30.2867 14.8938 28.9925 14.333 27.3531 14.9801C26.7922 15.1958 23.5134 16.7921 22.9957 17.0509C22.5212 17.2666 22.2192 17.2666 22.0035 16.7058C21.7015 16.0155 21.3132 15.3253 20.9681 14.635C20.7955 14.2899 20.7524 14.031 21.1406 13.8584C22.8232 12.9956 27.1805 10.7091 29.0356 10.8385Z" fill="#4385F5"/>
<path d="M39.0024 15.9293C37.1473 15.9725 35.7236 14.5919 35.7236 12.78C35.6805 10.968 37.1042 9.54431 38.9161 9.50117C40.7281 9.45803 42.238 10.9249 42.1949 12.6505C42.238 14.5488 40.8575 15.8862 39.0024 15.9293Z" fill="#4385F5"/>
</svg>
