<svg width="64" height="64" viewBox="0 0 64 64" fill="none" xmlns="http://www.w3.org/2000/svg">
<path d="M27.4999 28.7C27.5999 28.4 27.5999 28.2 27.6999 27.9C27.6999 27.8 27.7999 27.8 27.8999 27.8C30.1999 27.4 32.4999 27 34.7999 26.7C35.1999 26.6 35.6999 26.7 36.1999 26.7C36.1999 26.8 36.0999 27 36.0999 27.1C34.6999 32 33.2999 36.9 31.8999 41.7C31.7999 42.2 31.6999 42.7 31.5999 43.3C31.4999 43.7 31.6999 44 31.8999 44.1C32.1999 44.3 32.4999 44.2 32.6999 44C33.0999 43.6 33.5999 43.2 33.9999 42.7C34.3999 42.2 34.6999 41.7 35.0999 41.2C35.0999 41.1 35.1999 41.1 35.1999 41C35.3999 41.1 35.6999 41.3 35.9999 41.4C35.5999 42 35.1999 42.6 34.7999 43.2C33.9999 44.3 33.0999 45.4 31.8999 46.1C30.7999 46.8 29.6999 47.1 28.3999 46.9C26.7999 46.6 25.7999 45.3 26.0999 43.7C26.2999 42.6 26.5999 41.5 26.8999 40.5C27.7999 37.4 28.6999 34.3 29.5999 31.3C29.6999 30.9 29.7999 30.5 29.7999 30.1C29.8999 29.2 29.1999 28.7 28.4999 28.7C28.0999 28.7 27.7999 28.7 27.4999 28.7Z" fill="white"/>
<path d="M31.8008 20C31.8008 18.3 33.2008 16.9 34.8008 16.8C36.6008 16.8 38.0008 18.2 38.0008 20C38.0008 21.7 36.6008 23.1 34.9008 23.1C33.2008 23.2 31.8008 21.8 31.8008 20Z" fill="white"/>
<path d="M32 0C14.3 0 0 14.3 0 32C0 49.7 14.3 64 32 64C49.7 64 64 49.7 64 32C64 14.3 49.7 0 32 0ZM32 60C16.5 60 4 47.5 4 32C4 16.5 16.5 4 32 4C47.5 4 60 16.5 60 32C60 47.5 47.5 60 32 60Z" fill="white"/>
</svg>
