<svg width="63" height="60" viewBox="0 0 63 60" fill="none" xmlns="http://www.w3.org/2000/svg">
<path d="M60.5292 16.7631C60.4142 14.5545 59.5841 12.4431 58.1642 10.7476C56.7442 9.05201 54.8114 7.86418 52.6573 7.36326C50.164 6.76928 47.5386 7.12944 45.2974 8.37293C43.0561 9.61643 41.361 11.6533 40.5454 14.0832L34.4053 12.6147C34.775 10.0754 34.1815 7.48965 32.7415 5.36573C31.3015 3.24181 29.1191 1.7333 26.6234 1.13672C24.4779 0.612429 22.2201 0.799523 20.1901 1.66982C18.1602 2.54011 16.468 4.04647 15.3685 5.96198L1.6864 29.5139C1.5354 29.7766 1.42245 30.0593 1.35091 30.3537L0.625717 33.3858C-0.330909 37.4069 0.346609 41.6432 2.50963 45.1654C4.67264 48.6875 8.14449 51.2078 12.1634 52.1732C15.1109 52.8728 18.1983 52.699 21.0486 51.673C23.899 50.6469 26.3888 48.813 28.2141 46.3953L30.7793 47.0088C31.3131 49.9908 32.7038 52.7528 34.7814 54.9574C36.859 57.1621 39.5337 58.714 42.4787 59.4237C46.5001 60.3813 50.7372 59.7043 54.26 57.5414C57.7828 55.3784 60.3036 51.9062 61.2692 47.8867L61.9936 44.8576C62.0647 44.5605 62.0888 44.2585 62.0744 43.9569L60.5292 16.7631ZM13.6138 46.1089C11.2028 45.5289 9.12007 44.0166 7.82219 41.9035C6.52432 39.7904 6.11717 37.249 6.68999 34.8362C6.7451 34.6058 6.84814 34.4028 6.91769 34.179C7.6298 31.9349 9.16341 30.0426 11.2114 28.8812C13.2593 27.7197 15.6705 27.3747 17.962 27.9154C20.3745 28.4924 22.459 30.0041 23.7569 32.1181C25.0548 34.232 25.4598 36.7749 24.8828 39.1874L24.8763 39.2147C24.2904 41.6185 22.7771 43.6927 20.6669 44.9845C18.5567 46.2762 16.0211 46.6805 13.6138 46.1089ZM43.9291 53.3595C41.5238 52.78 39.4455 51.2722 38.1481 49.1655C36.8507 47.0588 36.4397 44.5242 37.0048 42.1155L37.0113 42.0882C37.2968 40.8936 37.8149 39.7669 38.5358 38.7725C39.2567 37.7781 40.1664 36.9354 41.213 36.2926C43.3267 34.9943 45.8696 34.5889 48.2822 35.1655C50.6948 35.7421 52.7795 37.2535 54.0778 39.3672C55.3761 41.4809 55.7815 44.0237 55.2049 46.4363C54.6247 48.8479 53.1119 50.931 50.9981 52.2288C48.8844 53.5266 46.3422 53.9332 43.9291 53.3595Z" fill="white"/>
</svg>
