<svg width="62" height="64" viewBox="0 0 62 64" fill="none" xmlns="http://www.w3.org/2000/svg">
<path d="M47.001 16.3814C45.901 23.7814 50.8009 27.6814 56.4009 27.3814C58.3009 33.2814 57.6009 38.8814 54.1009 43.9814C53.2009 45.2814 52.0009 46.4814 50.9009 47.5814C49.4009 48.9814 47.3009 48.8814 46.1009 47.5814C44.9009 46.1814 45.001 44.2814 46.501 42.7814C50.801 38.4814 52.001 33.4814 49.801 28.4814C46.701 21.4814 38.1009 19.0814 31.8009 23.4814C31.6009 23.5814 31.4009 23.7814 31.2009 23.8814C29.4009 25.1814 27.4009 24.9814 26.2009 23.4814C25.1009 21.9814 25.4009 19.9814 27.1009 18.6814C31.1009 15.5814 35.701 14.1814 40.801 14.8814C42.901 15.0814 44.901 15.8814 47.001 16.3814Z" fill="white"/>
<path d="M16.4992 54.2814C9.09916 52.8814 3.29915 47.0814 1.79915 39.8814C1.29915 37.3814 2.19915 35.6814 4.29915 35.2814C6.19915 34.8814 7.69915 36.0814 8.29915 38.4814C9.69915 44.6814 15.4992 48.8814 21.4992 48.0814C27.9992 47.1814 32.4992 41.9814 32.2992 35.4814C32.2992 34.7814 32.1992 34.1814 32.1992 33.4814C32.1992 31.6814 33.3991 30.3814 35.0991 30.1814C36.6991 29.9814 38.1991 31.0814 38.5991 32.6814C40.1991 38.6814 36.5992 47.8814 31.1992 51.0814C30.8992 51.2814 30.2992 51.3814 29.9992 51.1814C23.7992 47.8814 20.3992 48.5814 16.4992 54.2814Z" fill="white"/>
<path d="M13.1003 6.48139C17.9003 0.681388 26.5003 -1.51861 33.4003 1.08139C35.4003 1.78139 36.3003 3.58139 35.7003 5.38139C35.1003 7.18139 33.3003 7.98139 31.3003 7.38139C25.2003 5.48139 19.6003 7.48139 16.7003 12.4814C13.1003 18.5814 15.4003 26.2814 21.7003 29.4814C22.1003 29.6814 22.5003 29.7814 22.8003 29.9814C24.6003 30.8814 25.4003 32.5814 24.8003 34.2814C24.1003 36.0814 22.2003 36.8814 20.3003 36.0814C15.6003 34.1814 12.2003 30.9814 10.1003 26.3814C9.70027 25.3814 9.30028 24.3814 9.00028 23.2814C8.20028 20.2814 8.20027 20.2814 10.8003 18.5814C15.0003 16.0814 15.8003 11.5814 13.1003 6.48139Z" fill="white"/>
<path d="M0 11.7814C0 8.18144 2.7 5.28144 6.3 5.28144C9.9 5.18144 12.9 8.08144 12.9 11.7814C12.9 15.2814 10 18.1814 6.5 18.2814C2.9 18.1814 0.1 15.2814 0 11.7814Z" fill="white"/>
<path d="M61.5001 19.0814C61.5001 22.6814 58.7001 25.4814 55.1001 25.4814C51.5001 25.4814 48.5001 22.4814 48.6001 18.8814C48.7001 15.3814 51.7001 12.4814 55.2001 12.5814C58.7001 12.5814 61.5001 15.4814 61.5001 19.0814Z" fill="white"/>
<path d="M30.8006 57.3814C30.8006 60.9814 28.1006 63.7814 24.5006 63.8814C20.8006 63.8814 17.9006 61.0814 18.0006 57.3814C18.0006 53.7814 20.9006 50.9814 24.4006 50.9814C28.0006 50.9814 30.8006 53.7814 30.8006 57.3814Z" fill="white"/>
</svg>
