<svg width="26" height="26" viewBox="0 0 26 26" fill="none" xmlns="http://www.w3.org/2000/svg">
<path d="M19.0918 25.8595H14.7629L12.7758 25.1498L10.7888 25.7885H6.45987C2.91156 25.7885 0.00195312 22.8789 0.00195312 19.3306V6.69864C0.00195312 3.15033 2.91156 0.240723 6.45987 0.240723H19.0918C22.6401 0.240723 25.5497 3.15033 25.5497 6.69864V19.3306C25.6207 22.9499 22.7111 25.8595 19.0918 25.8595Z" fill="#282828"/>
<path d="M10.7892 10.2472V13.0149H7.5957V16.6342H10.7892V25.7888H14.7633V16.7052H17.7439L18.3116 13.0859H14.8342V10.744C14.8342 9.75048 15.331 8.75696 16.8923 8.75696H18.4535V5.56348C18.4535 5.56348 17.0342 5.35059 15.6149 5.35059C12.7053 5.35059 10.7892 7.05377 10.7892 10.2472Z" fill="#F0EEEE"/>
</svg>
