<svg width="27" height="26" viewBox="0 0 27 26" fill="none" xmlns="http://www.w3.org/2000/svg">
<path d="M19.5743 25.8595H6.94229C3.39398 25.8595 0.484375 22.9499 0.484375 19.4016V6.69864C0.484375 3.15033 3.39398 0.240723 6.94229 0.240723H19.5743C23.1226 0.240723 26.0322 3.15033 26.0322 6.69864V19.3306C26.1031 22.9499 23.1935 25.8595 19.5743 25.8595Z" fill="#282828"/>
<path d="M17.2325 8.33057C16.7357 8.33057 16.3809 8.6854 16.3809 9.18216C16.3809 9.67892 16.7357 10.0338 17.2325 10.0338C17.7292 10.0338 18.084 9.67892 18.084 9.18216C18.084 8.6854 17.6582 8.33057 17.2325 8.33057Z" fill="#F0EEEE"/>
<path d="M13.3292 9.39502C11.3422 9.39502 9.70996 11.0272 9.70996 13.0143C9.70996 15.0013 11.3422 16.6336 13.3292 16.6336C15.3163 16.6336 16.9485 15.0013 16.9485 13.0143C17.0195 11.0272 15.3872 9.39502 13.3292 9.39502ZM13.3292 15.4271C12.0518 15.4271 10.9874 14.3626 10.9874 13.0853C10.9874 11.8079 12.0518 10.7434 13.3292 10.7434C14.6066 10.7434 15.6711 11.8079 15.6711 13.0853C15.6711 14.3626 14.6066 15.4271 13.3292 15.4271Z" fill="#F0EEEE"/>
<path d="M16.239 20.4657H10.3488C7.86498 20.4657 5.87793 18.4787 5.87793 15.9948V10.1047C5.87793 7.62084 7.86498 5.63379 10.3488 5.63379H16.239C18.7228 5.63379 20.7098 7.62084 20.7098 10.1047V15.9948C20.7098 18.4787 18.7228 20.4657 16.239 20.4657ZM10.3488 7.05311C8.64561 7.05311 7.29725 8.40147 7.29725 10.1047V15.9948C7.29725 17.698 8.64561 19.0464 10.3488 19.0464H16.239C17.9422 19.0464 19.2905 17.698 19.2905 15.9948V10.1047C19.2905 8.40147 17.9422 7.05311 16.239 7.05311H10.3488Z" fill="#F0EEEE"/>
</svg>