<svg width="27" height="26" viewBox="0 0 27 26" fill="none" xmlns="http://www.w3.org/2000/svg">
<path d="M20.0577 25.8595H7.42569C3.87738 25.8595 0.967773 22.9499 0.967773 19.4016V6.69864C0.967773 3.15033 3.87738 0.240723 7.42569 0.240723H20.0577C23.606 0.240723 26.5156 3.15033 26.5156 6.69864V19.3306C26.5865 22.9499 23.6769 25.8595 20.0577 25.8595Z" fill="#282828"/>
<path d="M20.7674 8.82736C20.3416 9.04026 19.8449 9.11122 19.3481 9.25316C19.561 9.18219 19.9158 8.82736 20.0578 8.61446C20.2706 8.3306 20.4126 8.04673 20.5545 7.76287V7.6919H20.4835C19.9868 7.97577 19.4191 8.18866 18.8513 8.3306C18.7804 8.3306 18.7804 8.3306 18.7094 8.3306C18.6384 8.25963 18.6384 8.25963 18.5675 8.18866C18.3546 7.97577 18.0707 7.83383 17.7868 7.6919C17.432 7.54997 17.0062 7.479 16.5804 7.479C16.1546 7.479 15.7998 7.62094 15.445 7.83383C15.0901 8.04673 14.7353 8.25963 14.5224 8.61446C14.2385 8.96929 14.0966 9.32412 13.9547 9.74992C13.8837 10.1757 13.8837 10.5305 13.9547 10.9563C13.9547 11.0273 13.9547 11.0273 13.8837 11.0273C11.6128 10.6725 9.6967 9.89185 8.20641 8.1177C8.13545 8.04673 8.13545 8.04673 8.06448 8.1177C7.42579 9.11122 7.70965 10.7434 8.56124 11.5241C8.70317 11.595 8.77414 11.737 8.91607 11.8079C8.84511 11.8079 8.34834 11.737 7.85158 11.5241C7.78062 11.4531 7.78062 11.5241 7.78062 11.595C7.78062 11.737 7.78062 11.8079 7.78062 11.9499C7.92255 12.9434 8.63221 13.9369 9.55477 14.2917C9.6967 14.3627 9.76767 14.3627 9.9096 14.4337C9.6967 14.5046 9.4838 14.5046 8.84511 14.4337C8.77414 14.4337 8.70318 14.4337 8.77414 14.5046C9.27091 15.782 10.2644 16.2078 11.0451 16.4207C11.116 16.4207 11.258 16.4207 11.3289 16.4917C11.0451 16.8465 10.1935 17.2014 9.76767 17.3433C9.05801 17.6272 8.20641 17.6981 7.42579 17.6272C7.28385 17.6272 7.28386 17.6272 7.21289 17.6272C7.21289 17.6272 7.21289 17.6981 7.28386 17.6981C7.42579 17.7691 7.63868 17.911 7.78062 17.982C8.27738 18.2658 8.77414 18.4787 9.34187 18.6207C12.1805 19.4013 15.303 18.8336 17.432 16.7046C19.0642 15.0724 19.7029 12.8015 19.7029 10.5305C19.7029 10.4596 19.7739 10.3886 19.8449 10.3176C20.2706 9.96282 20.6255 9.60799 20.9803 9.18219C20.8384 8.89833 20.8384 8.82736 20.7674 8.82736C20.8384 8.82736 20.8384 8.82736 20.7674 8.82736C20.8384 8.75639 20.8384 8.75639 20.7674 8.82736Z" fill="#F0EEEE"/>
</svg>
