<svg width="26" height="26" viewBox="0 0 26 26" fill="none" xmlns="http://www.w3.org/2000/svg">
<path d="M19.541 25.8595H6.90909C3.36079 25.8595 0.451172 22.9499 0.451172 19.4016V6.69864C0.451172 3.15033 3.36079 0.240723 6.90909 0.240723H19.541C23.0893 0.240723 25.999 3.15033 25.999 6.69864V19.3306C26.0699 22.9499 23.1603 25.8595 19.541 25.8595Z" fill="#282828"/>
<path d="M13.864 11.8791C14.2188 11.4533 14.7156 11.1695 15.2124 11.0985C16.2059 10.9566 17.1994 10.9566 17.9091 11.8791C18.3349 12.3759 18.5478 13.0146 18.5478 13.7242C18.6187 15.1436 18.6188 16.5629 18.6188 17.9822C18.6188 18.337 18.4768 18.5499 18.051 18.5499C17.6252 18.5499 17.1285 18.5499 16.7027 18.5499C16.2769 18.5499 16.1349 18.408 16.1349 17.9822C16.1349 16.8467 16.1349 15.7113 16.1349 14.5758C16.1349 14.292 16.064 14.0791 15.993 13.7952C15.8511 13.3694 15.5672 13.1565 15.1414 13.1565C14.7156 13.1565 14.2898 13.2275 14.1479 13.6533C14.006 13.9371 13.864 14.292 13.864 14.6468C13.793 15.7113 13.864 16.8467 13.864 17.9112C13.864 18.408 13.7221 18.5499 13.2253 18.5499C12.7995 18.5499 12.3737 18.5499 12.0189 18.5499C11.5931 18.5499 11.4512 18.408 11.4512 17.9822C11.4512 15.9242 11.4512 13.7952 11.4512 11.7372C11.4512 11.3114 11.5931 11.1695 12.0189 11.1695C12.4447 11.1695 12.7995 11.1695 13.2253 11.1695C13.6511 11.1695 13.793 11.3114 13.864 11.8082C13.864 11.7372 13.864 11.8082 13.864 11.8791Z" fill="#F0EEEE"/>
<path d="M10.5284 14.7887C10.5284 15.8532 10.5284 16.8467 10.5284 17.9112C10.5284 18.337 10.3865 18.4789 9.96068 18.4789C9.53488 18.4789 9.10908 18.4789 8.75425 18.4789C8.32846 18.4789 8.18652 18.337 8.18652 17.9112C8.18652 15.8532 8.18652 13.7952 8.18652 11.7372C8.18652 11.3114 8.32846 11.1694 8.75425 11.1694C9.18005 11.1694 9.53488 11.1694 9.96068 11.1694C10.3865 11.1694 10.5994 11.3114 10.5994 11.8081C10.5284 12.7307 10.5284 13.7952 10.5284 14.7887Z" fill="#F0EEEE"/>
<path d="M7.83203 9.11155C7.83203 8.25995 8.5417 7.55029 9.32232 7.55029C10.1739 7.55029 10.8126 8.25995 10.8126 9.04058C10.8126 9.89217 10.1029 10.6018 9.25135 10.6018C8.47073 10.6018 7.83203 9.96314 7.83203 9.11155Z" fill="#F0EEEE"/>
</svg>
